:SAMPLES-PER-SECOND 30
:FULLY-SPECIFIED
:DEGREES
184
root  -32.9654 34.91 22.3826 -157.23 14.2849 -176.984
RightUpLeg  -35.7718 -9.45358 6.76838
RightLeg  57.1338 15.0632 -2.34133
RightFoot  -30.0446 0.702118 4.14941
RightToes  -5.82073e-011 -3.18055e-015 -2.98177e-016
Spine  35.0661 -0.826395 10.3904
Spine1  -18.7681 1.62551 -3.93464
HEad  -36.0097 2.64044 1.85609
LeftShoulder1  -3.88251e-019 9.70628e-020 -3.87848e-018
LeftArm  -11.1945 -28.0975 -55.8412
LeftForeArm  -20.8657 -53.7957 14.5406
LeftHand  -1.07344 -5.97217 11.7572
RightShoulder  -0.396944 2.54266 -6.795
RightArm  -6.63792 27.9692 60.2399
RightForeArm  -12.9063 52.8177 -35.3823
RightHand  -5.2932 12.1738 -33.8659
LeftUpLeg  -29.301 2.87011 -3.55315
LeftLeg  51.4628 -5.58247 12.0648
LeftFoot  -33.306 -1.56848 -8.23439
LeftToes  1.2018e-011 -3.94675e-011 -1.33631e-011
185
root  -32.3874 37.2175 19.331 -158.952 14.1991 -176.934
RightUpLeg  -22.4821 -13.3039 4.58751
RightLeg  43.2776 18.9881 2.13995
RightFoot  -19.2661 0.455473 8.00467
RightToes  -5.82073e-011 -3.18055e-015 -2.98177e-016
Spine  30.0055 -0.654737 10.4865
Spine1  -19.0803 1.66114 -4.67379
HEad  -26.4553 1.14147 2.97316
LeftShoulder1  -3.88251e-019 9.70628e-020 -3.87848e-018
LeftArm  -10.815 -28.3581 -53.2575
LeftForeArm  -13.1808 -63.5611 23.4141
LeftHand  -2.55235 -13.2432 16.08
RightShoulder  -0.811533 0.72269 -10.8297
RightArm  -10.9589 26.0878 58.5092
RightForeArm  -18.6589 58.9154 -46.2352
RightHand  -5.5617 12.6391 -34.6288
LeftUpLeg  -16.5872 5.77968 -2.53469
LeftLeg  36.546 -6.47666 6.84682
LeftFoot  -18.7873 -0.473237 -8.55821
LeftToes  1.2018e-011 -3.94675e-011 -1.33631e-011
186
root  -31.6439 39.5629 15.5698 -159.387 14.9094 -177.09
RightUpLeg  -9.95729 -13.8444 1.10571
RightLeg  26.0813 22.5637 3.6695
RightFoot  1.06424 -1.31998 10.4931
RightToes  -5.82073e-011 -3.18055e-015 -2.98177e-016
Spine  20.0487 0.385507 9.90105
Spine1  -16.376 2.05393 -4.45535
HEad  -11.3767 0.483473 2.3346
LeftShoulder1  -3.88251e-019 9.70628e-020 -3.87848e-018
LeftArm  -10.1086 -25.3964 -51.7714
LeftForeArm  -10.7517 -70.1546 35.2145
LeftHand  -4.6541 -15.9089 25.8419
RightShoulder  -0.996492 -2.13457 -13.3456
RightArm  -12.2485 21.9896 60.5023
RightForeArm  -24.7967 62.0519 -54.7057
RightHand  -5.5122 12.5326 -34.5175
LeftUpLeg  -4.75159 9.17701 -1.0081
LeftLeg  20.4489 -10.1461 2.30018
LeftFoot  3.47578 1.5522 -10.1934
LeftToes  1.2018e-011 -3.94675e-011 -1.33631e-011
187
root  -30.8727 41.2668 11.9747 -157.973 15.6827 -177.81
RightUpLeg  -4.99927 -6.58125 -1.67398
RightLeg  17.9155 19.6888 2.41218
RightFoot  19.9958 -3.30811 10.854
RightToes  -5.82073e-011 -3.18055e-015 -2.98177e-016
Spine  9.35058 1.1878 8.37316
Spine1  -15.3836 2.00304 -3.88381
HEad  6.11152 1.40352 0.299387
LeftShoulder1  -3.88251e-019 9.70628e-020 -3.87848e-018
LeftArm  -9.35992 -21.6338 -50.4977
LeftForeArm  -16.9982 -73.583 45.7351
LeftHand  -5.1668 -14.9844 29.6115
RightShoulder  -1.03208 -5.31144 -15.0735
RightArm  -11.5563 18.0585 63.4838
RightForeArm  -25.1042 62.8674 -57.6563
RightHand  -4.75826 12.0316 -30.8301
LeftUpLeg  -1.28204 9.61838 -0.408579
LeftLeg  17.4834 -12.9692 1.09293
LeftFoot  21.1533 4.12431 -13.2384
LeftToes  1.2018e-011 -3.94675e-011 -1.33631e-011
188
root  -30.3088 42.5388 9.24402 -156.756 15.1358 -178.236
RightUpLeg  -8.0854 -7.11213 -1.52318
RightLeg  29.7711 22.2858 3.188
RightFoot  24.5956 -3.54555 9.9775
RightToes  -5.82073e-011 -3.18055e-015 -2.98177e-016
Spine  3.93185 0.657035 8.14766
Spine1  -17.236 1.25656 -4.01193
HEad  19.714 2.7293 -1.19344
LeftShoulder1  -3.88251e-019 9.70628e-020 -3.87848e-018
LeftArm  -9.43134 -18.5135 -49.7022
LeftForeArm  -27.6926 -75.3761 53.0074
LeftHand  -4.35424 -13.8865 26.4999
RightShoulder  -1.01856 -6.37373 -15.6515
RightArm  -10.3847 14.429 60.8184
RightForeArm  -25.9406 63.5447 -60.4063
RightHand  -3.88375 11.8516 -25.6988
LeftUpLeg  -6.96071 7.50814 0.08122
LeftLeg  34.9533 -12.7175 1.5476
LeftFoot  25.2327 5.2572 -14.8765
LeftToes  1.2018e-011 -3.94675e-011 -1.33631e-011
189
root  -29.9585 43.2567 7.34479 -158.656 13.1553 -177.996
RightUpLeg  -12.4059 -8.62094 -1.07824
RightLeg  55.3604 21.3061 7.75401
RightFoot  19.1613 -3.05747 10.2808
RightToes  -5.82073e-011 -3.18055e-015 -2.98177e-016
Spine  5.1027 -0.826865 9.14611
Spine1  -17.6367 0.35548 -4.50802
HEad  25.7259 2.59071 -0.725517
LeftShoulder1  -3.88251e-019 9.70628e-020 -3.87848e-018
LeftArm  -11.321 -15.4628 -49.5724
LeftForeArm  -49.9879 -77.5969 66.4469
LeftHand  -3.01625 -12.6191 19.8787
RightShoulder  -1.01517 -5.62397 -14.8003
RightArm  -10.4296 10.0605 51.066
RightForeArm  -38.4328 65.6411 -70.0857
RightHand  -3.63007 11.6085 -24.4032
LeftUpLeg  -13.8044 6.33964 2.32579
LeftLeg  62.8622 -12.5654 3.11904
LeftFoot  22.7331 4.36821 -13.2465
LeftToes  1.2018e-011 -3.94675e-011 -1.33631e-011
190
root  -29.6064 43.6672 5.7161 -163.222 11.6398 -178.14
RightUpLeg  -15.0064 -9.39248 -1.50816
RightLeg  80.5099 17.5478 9.57445
RightFoot  13.0868 -3.62394 15.3466
RightToes  -5.82073e-011 -3.18055e-015 -2.98177e-016
Spine  7.64265 -2.02725 7.81757
Spine1  -12.3523 -0.137725 -4.15292
HEad  25.5042 1.84002 0.747131
LeftShoulder1  -3.88251e-019 9.70628e-020 -3.87848e-018
LeftArm  -13.7491 -11.0198 -49.7813
LeftForeArm  -82.8662 -78.8466 89.5178
LeftHand  -2.06532 -10.642 15.6253
RightShoulder  -0.966225 -5.35195 -12.7786
RightArm  -12.3483 3.65258 40.0859
RightForeArm  -60.7095 67.2802 -86.1511
RightHand  -3.98437 10.8415 -27.8664
LeftUpLeg  -18.2401 5.26044 4.62979
LeftLeg  89.4019 -13.602 5.1848
LeftFoot  22.1528 2.58714 -7.99659
LeftToes  1.2018e-011 -3.94675e-011 -1.33631e-011
191
root  -29.2525 43.9028 4.194 -166.847 11.6482 -178.792
RightUpLeg  -20.6417 -8.17082 -2.04979
RightLeg  102.721 14.6622 5.20663
RightFoot  6.4497 -3.36351 18.612
RightToes  -5.82073e-011 -3.18055e-015 -2.98177e-016
Spine  9.3013 -2.35867 4.84203
Spine1  -5.96232 -0.356958 -3.38291
HEad  22.5244 2.03235 2.49595
LeftShoulder1  -3.88251e-019 9.70628e-020 -3.87848e-018
LeftArm  -13.3697 -4.54163 -50.0139
LeftForeArm  -86.4566 -78.9726 91.1742
LeftHand  -2.38197 -10.6826 17.7368
RightShoulder  -0.864595 -4.69592 -9.94464
RightArm  -13.8155 -5.42356 31.232
RightForeArm  -78.1454 67.365 -99.1181
RightHand  -4.33656 10.1638 -31.4636
LeftUpLeg  -24.0657 4.75717 5.5294
LeftLeg  111.84 -15.436 5.0332
LeftFoot  21.1357 0.149491 -0.192197
LeftToes  1.2018e-011 -3.94675e-011 -1.33631e-011
192
root  -28.9276 43.6646 2.777 -167.855 12.8684 -179.671
RightUpLeg  -30.3668 -7.61257 -1.15194
RightLeg  120.903 18.249 -3.8965
RightFoot  -0.476004 -0.968281 8.26518
RightToes  -5.82073e-011 -3.18055e-015 -2.98177e-016
Spine  11.4012 -2.32954 2.1915
Spine1  -3.88391 -0.66973 -4.01602
HEad  19.4162 3.15257 3.3138
LeftShoulder1  -3.88251e-019 9.70628e-020 -3.87848e-018
LeftArm  -10.3215 3.53178 -50.0864
LeftForeArm  -58.4709 -77.8647 65.4092
LeftHand  -2.79332 -11.9942 19.1913
RightShoulder  -0.529156 -1.77347 -5.62915
RightArm  -10.7952 -16.132 21.6704
RightForeArm  -84.355 67.0518 -104.835
RightHand  -4.27368 9.62079 -32.0795
LeftUpLeg  -32.6849 5.76147 4.69949
LeftLeg  128.049 -18.0014 5.7641
LeftFoot  14.0041 -1.62646 6.98591
LeftToes  1.2018e-011 -3.94675e-011 -1.33631e-011
193
root  -28.5323 43.2394 0.867051 -167.87 13.9878 179.924
RightUpLeg  -40.0465 -8.99759 2.97526
RightLeg  126.362 28.1767 -16.0108
RightFoot  -4.33 0.613321 -6.99527
RightToes  -5.82073e-011 -3.18055e-015 -2.98177e-016
Spine  13.8654 -2.54434 1.02947
Spine1  -3.4611 -1.11799 -5.63569
HEad  15.8256 4.25795 3.0207
LeftShoulder1  -3.88251e-019 9.70628e-020 -3.87848e-018
LeftArm  -8.01602 11.4452 -50.3959
LeftForeArm  -33.2165 -73.1465 40.1336
LeftHand  -2.25379 -10.2178 17.3443
RightShoulder  0.24007 1.83969 0.504748
RightArm  -2.26153 -25.8771 9.65955
RightForeArm  -83.8059 66.9352 -105.585
RightHand  -3.92826 8.8533 -31.1167
LeftUpLeg  -41.2576 7.5808 2.72416
LeftLeg  132.404 -23.7357 11.0512
LeftFoot  3.1014 -1.59508 11.101
LeftToes  1.2018e-011 -3.94675e-011 -1.33631e-011
